<svg xmlns="http://www.w3.org/2000/svg" viewBox="0 0 64 64" role="img" aria-label="Rainbow ring">
  <defs>
    <filter id="soft-glow" x="-50%" y="-50%" width="200%" height="200%">
      <feGaussianBlur stdDeviation="2.2" result="blur"/>
      <feMerge>
        <feMergeNode in="blur"/>
        <feMergeNode in="SourceGraphic"/>
      </feMerge>
    </filter>
  </defs>
  <rect width="64" height="64" rx="16" fill="#071020"/>
  <circle cx="32" cy="32" r="22" fill="none" stroke="#f6fbff" stroke-opacity=".18" stroke-width="3"/>
  <g fill="none" stroke-width="5.5" stroke-linecap="round" filter="url(#soft-glow)">
    <path d="M32 10 A22 22 0 0 1 51.05 21" stroke="#ff5f7e"/>
    <path d="M51.05 21 A22 22 0 0 1 51.05 43" stroke="#ffc75a"/>
    <path d="M51.05 43 A22 22 0 0 1 32 54" stroke="#bbff64"/>
    <path d="M32 54 A22 22 0 0 1 12.95 43" stroke="#46e6ff"/>
    <path d="M12.95 43 A22 22 0 0 1 12.95 21" stroke="#7c8cff"/>
    <path d="M12.95 21 A22 22 0 0 1 32 10" stroke="#ff8df0"/>
  </g>
  <circle cx="32" cy="32" r="13" fill="#071020" fill-opacity=".92"/>
  <circle cx="32" cy="32" r="7" fill="#f6fbff" fill-opacity=".16"/>
</svg>
